<svg xmlns="http://www.w3.org/2000/svg" xmlns:xlink="http://www.w3.org/1999/xlink" width="263" zoomAndPan="magnify" viewBox="0 0 197.25 57.749997" height="77" preserveAspectRatio="xMidYMid meet" version="1.0"><defs><g/><clipPath id="a9378d4955"><path d="M 101.429688 12.371094 L 136.519531 12.371094 L 136.519531 47.457031 L 101.429688 47.457031 Z M 101.429688 12.371094 " clip-rule="nonzero"/></clipPath></defs><path stroke-linecap="butt" transform="matrix(0.0521081, 0, 0, 0.0521081, 11.208981, 9.621347)" fill="none" stroke-linejoin="miter" d="M 543.679438 561.02879 L 543.679438 481.191694 L 369.537114 481.191694 L 369.537114 423.544063 L 543.679438 423.544063 L 543.679438 346.405685 L 369.537114 346.405685 L 369.537114 291.306844 L 543.679438 291.306844 L 543.679438 210.944997 L 281.753791 210.944997 L 281.753791 561.02879 Z M 869.62469 561.02879 L 869.62469 210.944997 L 606.724506 210.944997 L 606.724506 291.306844 L 624.041285 291.306844 L 624.041285 481.191694 L 606.724506 481.191694 L 606.724506 561.02879 Z M 781.991295 481.191694 L 694.357901 481.191694 L 694.357901 291.306844 L 781.991295 291.306844 Z M 1200.817451 561.02879 L 1200.817451 210.944997 L 1113.184057 210.944997 L 1113.184057 481.191694 L 1025.550662 481.191694 L 1025.550662 210.944997 L 937.767338 210.944997 L 937.767338 561.02879 Z M 1200.817451 561.02879 " stroke="#1900b6" stroke-width="29.519888" stroke-opacity="1" stroke-miterlimit="4"/><g fill="#005eff" fill-opacity="1"><g transform="translate(25.184526, 38.853969)"><g><path d="M 14.359375 0 L 14.359375 -4.15625 L 5.28125 -4.15625 L 5.28125 -7.171875 L 14.359375 -7.171875 L 14.359375 -11.1875 L 5.28125 -11.1875 L 5.28125 -14.0625 L 14.359375 -14.0625 L 14.359375 -18.234375 L 0.71875 -18.234375 L 0.71875 0 Z M 14.359375 0 "/></g></g></g><g fill="#005eff" fill-opacity="1"><g transform="translate(42.385037, 38.853969)"><g><path d="M 14.140625 0 L 14.140625 -18.234375 L 0.4375 -18.234375 L 0.4375 -14.0625 L 1.34375 -14.0625 L 1.34375 -4.15625 L 0.4375 -4.15625 L 0.4375 0 Z M 9.578125 -4.15625 L 5 -4.15625 L 5 -14.0625 L 9.578125 -14.0625 Z M 9.578125 -4.15625 "/></g></g></g><g fill="#005eff" fill-opacity="1"><g transform="translate(59.366778, 38.853969)"><g><path d="M 14.40625 0 L 14.40625 -18.234375 L 9.84375 -18.234375 L 9.84375 -4.15625 L 5.28125 -4.15625 L 5.28125 -18.234375 L 0.71875 -18.234375 L 0.71875 0 Z M 14.40625 0 "/></g></g></g><g fill="#000000" fill-opacity="1"><g transform="translate(76.114066, 39.62841)"><g><path d="M 15.640625 0 L 15.640625 -12.140625 L 5.734375 -12.140625 L 5.734375 -15.25 L 15.640625 -15.25 L 15.640625 -19.796875 L 0.765625 -19.796875 L 0.765625 -7.78125 L 10.6875 -7.78125 L 10.6875 -4.515625 L 0.765625 -4.515625 L 0.765625 0 Z M 15.640625 0 "/></g></g></g><g fill="#000000" fill-opacity="1"><g transform="translate(93.499167, 39.62841)"><g><path d="M 15.640625 0 L 15.640625 -4.515625 L 5.734375 -4.515625 L 5.734375 -15.25 L 15.640625 -15.25 L 15.640625 -19.796875 L 0.765625 -19.796875 L 0.765625 0 Z M 15.640625 0 "/></g></g></g><g fill="#000000" fill-opacity="1"><g transform="translate(110.735927, 39.62841)"><g><path d="M 15.640625 0 L 15.640625 -19.796875 L 0.765625 -19.796875 L 0.765625 0 Z M 10.6875 -4.515625 L 5.734375 -4.515625 L 5.734375 -15.25 L 10.6875 -15.25 Z M 10.6875 -4.515625 "/></g></g></g><g fill="#000000" fill-opacity="1"><g transform="translate(128.150693, 39.62841)"><g><path d="M 15.640625 -5.515625 L 15.640625 -19.796875 L 0.765625 -19.796875 L 0.765625 0 L 5.734375 0 L 5.734375 -5.515625 Z M 10.6875 -10.03125 L 5.734375 -10.03125 L 5.734375 -15.25 L 10.6875 -15.25 Z M 10.6875 -10.03125 "/></g></g></g><g fill="#000000" fill-opacity="1"><g transform="translate(145.476459, 39.62841)"><g><path d="M 15.578125 0 L 15.578125 -4.515625 L 5.734375 -4.515625 L 5.734375 -7.78125 L 15.578125 -7.78125 L 15.578125 -12.140625 L 5.734375 -12.140625 L 5.734375 -15.25 L 15.578125 -15.25 L 15.578125 -19.796875 L 0.765625 -19.796875 L 0.765625 0 Z M 15.578125 0 "/></g></g></g><g clip-path="url(#a9378d4955)"><path fill="#ff0000" d="M 136.507812 29.636719 L 133.21875 29.636719 C 133.101562 21.960938 126.90625 15.738281 119.242188 15.574219 L 119.242188 12.371094 L 118.609375 12.371094 L 118.609375 15.574219 C 110.949219 15.738281 104.75 21.960938 104.632812 29.636719 L 101.429688 29.636719 L 101.429688 30.269531 L 104.632812 30.269531 C 104.847656 37.859375 111.007812 43.988281 118.609375 44.15625 L 118.609375 47.449219 L 119.242188 47.449219 L 119.242188 44.15625 C 126.84375 43.988281 133.003906 37.859375 133.21875 30.269531 L 136.507812 30.269531 Z M 132.585938 29.636719 L 130.273438 29.636719 C 130.253906 28.917969 130.171875 28.203125 130.015625 27.5 C 129.863281 26.792969 129.644531 26.109375 129.363281 25.449219 C 129.078125 24.785156 128.734375 24.152344 128.332031 23.554688 C 127.929688 22.957031 127.476562 22.402344 126.964844 21.890625 C 126.457031 21.378906 125.90625 20.921875 125.3125 20.511719 C 124.714844 20.105469 124.089844 19.757812 123.425781 19.472656 C 122.765625 19.183594 122.082031 18.960938 121.378906 18.800781 C 120.675781 18.644531 119.964844 18.554688 119.242188 18.53125 L 119.242188 16.203125 C 126.554688 16.375 132.46875 22.3125 132.585938 29.636719 Z M 130.128906 30.269531 C 130.105469 30.976562 130.015625 31.675781 129.859375 32.367188 C 129.703125 33.058594 129.484375 33.730469 129.203125 34.378906 C 128.921875 35.027344 128.582031 35.644531 128.183594 36.230469 C 127.785156 36.816406 127.335938 37.359375 126.835938 37.859375 C 126.332031 38.359375 125.789062 38.808594 125.203125 39.207031 C 124.617188 39.605469 124 39.945312 123.351562 40.226562 C 122.703125 40.507812 122.03125 40.726562 121.339844 40.882812 C 120.648438 41.035156 119.949219 41.125 119.242188 41.148438 L 119.242188 39.945312 L 118.609375 39.945312 L 118.609375 41.148438 C 117.898438 41.128906 117.195312 41.042969 116.5 40.894531 C 115.804688 40.742188 115.132812 40.527344 114.480469 40.246094 C 113.824219 39.964844 113.203125 39.628906 112.613281 39.230469 C 112.023438 38.832031 111.476562 38.382812 110.972656 37.882812 C 110.46875 37.382812 110.015625 36.839844 109.613281 36.253906 C 109.210938 35.664062 108.867188 35.046875 108.585938 34.394531 C 108.300781 33.742188 108.078125 33.070312 107.921875 32.375 C 107.765625 31.683594 107.675781 30.980469 107.652344 30.269531 L 108.929688 30.269531 L 108.929688 29.636719 L 107.648438 29.636719 C 107.667969 28.921875 107.753906 28.214844 107.90625 27.519531 C 108.058594 26.820312 108.277344 26.140625 108.558594 25.484375 C 108.839844 24.828125 109.179688 24.203125 109.582031 23.613281 C 109.980469 23.019531 110.433594 22.472656 110.941406 21.964844 C 111.445312 21.460938 111.992188 21.007812 112.585938 20.605469 C 113.175781 20.203125 113.800781 19.863281 114.457031 19.578125 C 115.113281 19.296875 115.792969 19.078125 116.488281 18.925781 C 117.1875 18.773438 117.894531 18.6875 118.609375 18.667969 L 118.609375 19.871094 L 119.242188 19.871094 L 119.242188 18.671875 C 119.953125 18.695312 120.65625 18.785156 121.351562 18.941406 C 122.046875 19.097656 122.71875 19.316406 123.371094 19.601562 C 124.023438 19.886719 124.644531 20.226562 125.230469 20.628906 C 125.820312 21.03125 126.363281 21.484375 126.867188 21.992188 C 127.367188 22.496094 127.816406 23.042969 128.214844 23.632812 C 128.613281 24.222656 128.949219 24.847656 129.230469 25.5 C 129.511719 26.15625 129.726562 26.832031 129.878906 27.527344 C 130.027344 28.222656 130.113281 28.925781 130.132812 29.636719 L 129.007812 29.636719 L 129.007812 30.269531 Z M 118.609375 16.203125 L 118.609375 18.527344 C 117.886719 18.546875 117.167969 18.632812 116.460938 18.789062 C 115.753906 18.945312 115.070312 19.164062 114.40625 19.449219 C 113.738281 19.738281 113.105469 20.082031 112.507812 20.488281 C 111.910156 20.894531 111.351562 21.355469 110.839844 21.867188 C 110.328125 22.378906 109.871094 22.933594 109.464844 23.535156 C 109.058594 24.132812 108.714844 24.765625 108.429688 25.429688 C 108.144531 26.097656 107.921875 26.785156 107.769531 27.492188 C 107.613281 28.199219 107.527344 28.914062 107.511719 29.636719 L 105.265625 29.636719 C 105.386719 22.3125 111.296875 16.375 118.609375 16.203125 Z M 105.265625 30.269531 L 107.511719 30.269531 C 107.535156 30.988281 107.628906 31.703125 107.785156 32.402344 C 107.945312 33.105469 108.167969 33.789062 108.457031 34.449219 C 108.742188 35.109375 109.089844 35.734375 109.496094 36.332031 C 109.902344 36.925781 110.363281 37.476562 110.875 37.984375 C 111.382812 38.492188 111.9375 38.945312 112.535156 39.347656 C 113.132812 39.75 113.761719 40.09375 114.425781 40.375 C 115.085938 40.660156 115.769531 40.878906 116.472656 41.03125 C 117.175781 41.183594 117.890625 41.269531 118.609375 41.289062 L 118.609375 43.523438 C 111.355469 43.355469 105.480469 37.511719 105.269531 30.269531 Z M 119.238281 43.523438 L 119.238281 41.289062 C 119.957031 41.265625 120.664062 41.175781 121.367188 41.019531 C 122.066406 40.863281 122.746094 40.640625 123.402344 40.355469 C 124.0625 40.070312 124.6875 39.726562 125.28125 39.324219 C 125.875 38.921875 126.425781 38.464844 126.933594 37.960938 C 127.441406 37.453125 127.894531 36.902344 128.300781 36.308594 C 128.703125 35.714844 129.046875 35.089844 129.335938 34.433594 C 129.621094 33.773438 129.839844 33.097656 130 32.394531 C 130.15625 31.695312 130.246094 30.988281 130.269531 30.269531 L 132.582031 30.269531 C 132.371094 37.511719 126.496094 43.355469 119.242188 43.523438 Z M 118.972656 29.902344 L 120.777344 29.902344 L 120.777344 29.992188 L 118.972656 29.992188 L 118.972656 31.664062 L 118.886719 31.664062 L 118.886719 29.992188 L 117.246094 29.992188 L 117.246094 29.902344 L 118.882812 29.902344 L 118.882812 28.3125 L 118.972656 28.3125 Z M 118.972656 29.902344 " fill-opacity="1" fill-rule="nonzero"/></g></svg>